<svg width="245" height="225" viewBox="0 0 245 225" fill="none" xmlns="http://www.w3.org/2000/svg">
<rect width="245" height="225" fill="white"/>
<path d="M76.704 67.916C69.6987 70.58 64.272 74.724 60.424 80.348C56.576 85.8733 54.652 92.6813 54.652 100.772C54.652 104.423 54.9973 106.988 55.688 108.468C56.3787 109.849 56.724 110.639 56.724 110.836C51.396 110.836 47.4 109.751 44.736 107.58C42.1707 105.311 40.888 101.611 40.888 96.48C40.888 90.1653 43.4533 84.048 48.584 78.128C53.8133 72.1093 60.4733 67.2747 68.564 63.624C76.6547 59.8747 84.7453 58 92.836 58C94.2173 58 96.1907 58.0987 98.756 58.296L100.088 149.316L131.168 58.74H149.964L151.296 149.316L182.376 58.74H192.736L151.592 169H130.28L128.504 93.668L100.384 169H79.072L76.704 67.916Z" fill="black"/>
</svg>
